# 3ds Max Wavefront OBJ Exporter v0.97b - (c)2007 guruware
# File Created: 19.05.2013 18:47:48

mtllib drain.mtl

#
# object Box001
#

v  -0.5000 -0.0553 -0.5000
v  -0.3000 -0.0553 -0.5000
v  -0.3000 -0.0553 0.5000
v  -0.5000 -0.0553 0.5000
v  -0.3000 0.9447 0.5000
v  -0.3000 0.9447 -0.5000
v  -0.5000 0.9447 -0.5000
v  -0.5000 0.9447 0.5000
v  0.5000 -0.0553 0.5000
v  0.5000 -0.0553 -0.5000
v  0.5000 0.9447 -0.5000
v  0.5000 0.9447 0.5000
v  0.3000 -0.0553 -0.5000
v  0.3000 0.9447 -0.5000
v  0.1000 -0.0553 -0.5000
v  0.1000 -0.0553 0.5000
v  -0.1000 -0.0553 0.5000
v  -0.1000 -0.0553 -0.5000
v  0.1000 0.5447 0.5000
v  0.1000 0.5447 -0.5000
v  -0.1000 0.5447 -0.5000
v  -0.1000 0.5447 0.5000
v  0.3000 -0.0553 0.5000
v  0.3000 0.9447 0.5000
# 24 vertices

vn 0.0000 -1.0000 -0.0000
vn 0.5257 0.8507 0.0000
vn 0.0000 1.0000 -0.0000
vn 0.0000 0.0000 1.0000
vn 1.0000 0.0000 -0.0000
vn 0.0000 0.0000 -1.0000
vn -1.0000 0.0000 -0.0000
vn -0.5257 0.8507 0.0000
vn -0.5257 0.8507 -0.0000
# 9 vertex normals

vt 0.6467 0.3345 0.0000
vt 0.6467 0.3941 0.0000
vt 0.3488 0.3941 0.0000
vt 0.3488 0.3345 0.0000
vt 0.0596 0.0000 0.0000
vt 0.0596 0.2979 0.0000
vt 0.0000 0.2979 0.0000
vt 0.0000 0.0000 0.0000
vt 0.0665 0.3360 0.0000
vt 0.0665 0.6339 0.0000
vt 0.0069 0.6339 0.0000
vt 0.0069 0.3360 0.0000
vt 0.3131 0.6869 0.0000
vt 0.6110 0.6869 0.0000
vt 0.6110 0.9848 0.0000
vt 0.3131 0.9848 0.0000
vt 0.7315 0.3375 0.0000
vt 0.7315 0.6354 0.0000
vt 0.6719 0.6354 0.0000
vt 0.6719 0.3375 0.0000
vt 0.7887 0.0000 0.0000
vt 0.7887 0.2979 0.0000
vt 0.4908 0.2979 0.0000
vt 0.4908 -0.0000 0.0000
vt 0.6467 0.5133 0.0000
vt 0.3488 0.5133 0.0000
vt 0.3488 0.4537 0.0000
vt 0.6467 0.4537 0.0000
vt 0.2524 0.0000 0.0000
vt 0.2524 0.2979 0.0000
vt 0.1928 0.2979 0.0000
vt 0.1928 0.0000 0.0000
vt 0.1857 0.3360 0.0000
vt 0.1857 0.5148 0.0000
vt 0.1261 0.5148 0.0000
vt 0.1261 0.3360 0.0000
vt 0.9102 0.3375 0.0000
vt 0.9102 0.6354 0.0000
vt 0.8507 0.5163 0.0000
vt 0.8507 0.3375 0.0000
vt 0.7911 0.5163 0.0000
vt 0.7911 0.3375 0.0000
vt 0.6467 0.5729 0.0000
vt 0.3488 0.5729 0.0000
vt 0.3856 0.0000 0.0000
vt 0.3856 0.2979 0.0000
vt 0.2453 0.3360 0.0000
vt 0.2453 0.6339 0.0000
vt 0.6467 0.6324 0.0000
vt 0.3488 0.6324 0.0000
vt 0.4452 0.0000 0.0000
vt 0.4452 0.2979 0.0000
vt 0.3048 0.3360 0.0000
vt 0.3048 0.6339 0.0000
vt 0.9698 0.3375 0.0000
vt 0.9698 0.6354 0.0000
# 56 texture coords

g Box001
usemtl wire_154215229
s 2
f 1/1/1 2/2/1 3/3/1 
f 3/3/1 4/4/1 1/1/1 
s 4
f 5/5/2 6/6/2 7/7/3 
f 7/7/3 8/8/3 5/5/2 
s 8
f 3/9/4 5/10/4 8/11/4 
f 8/11/4 4/12/4 3/9/4 
s 16
f 9/13/5 10/14/5 11/15/5 
f 11/15/5 12/16/5 9/13/5 
s 32
f 13/17/6 14/18/6 11/19/6 
f 11/19/6 10/20/6 13/17/6 
s 64
f 1/21/7 4/22/7 8/23/7 
f 8/23/7 7/24/7 1/21/7 
s 2
f 15/25/1 16/26/1 17/27/1 
f 17/27/1 18/28/1 15/25/1 
s 4
f 19/29/8 20/30/8 21/31/2 
f 21/31/2 22/32/2 19/29/8 
s 8
f 16/33/4 19/34/4 22/35/4 
f 22/35/4 17/36/4 16/33/4 
s 32
f 2/37/6 6/38/6 21/39/6 
f 21/39/6 18/40/6 2/37/6 
f 18/40/6 21/39/6 20/41/6 
f 20/41/6 15/42/6 18/40/6 
s 2
f 13/43/1 23/44/1 16/26/1 
f 16/26/1 15/25/1 13/43/1 
s 4
f 24/45/8 14/46/9 20/30/8 
f 20/30/8 19/29/8 24/45/8 
s 8
f 23/47/4 24/48/4 19/34/4 
f 19/34/4 16/33/4 23/47/4 
s 32
f 15/42/6 20/41/6 14/18/6 
f 14/18/6 13/17/6 15/42/6 
s 2
f 10/49/1 9/50/1 23/44/1 
f 23/44/1 13/43/1 10/49/1 
s 4
f 12/51/3 11/52/3 14/46/9 
f 14/46/9 24/45/8 12/51/3 
s 8
f 9/53/4 12/54/4 24/48/4 
f 24/48/4 23/47/4 9/53/4 
s 2
f 18/28/1 17/27/1 3/3/1 
f 3/3/1 2/2/1 18/28/1 
s 4
f 22/32/2 21/31/2 6/6/2 
f 6/6/2 5/5/2 22/32/2 
s 8
f 17/36/4 22/35/4 5/10/4 
f 5/10/4 3/9/4 17/36/4 
s 32
f 1/55/6 7/56/6 6/38/6 
f 6/38/6 2/37/6 1/55/6 
# 44 faces

