# 3ds Max Wavefront OBJ Exporter v0.97b - (c)2007 guruware
# File Created: 19.05.2013 19:35:41

mtllib drainX.mtl

#
# object Box001
#

v  -0.5000 -0.3857 0.3000
v  -0.3000 -0.3857 0.3000
v  -0.3000 -0.3857 0.5000
v  -0.5000 -0.3857 0.5000
v  -0.3000 0.6143 0.5000
v  -0.3000 0.6143 0.3000
v  -0.5000 0.6143 0.3000
v  -0.5000 0.6143 0.5000
v  0.5000 -0.3857 0.3000
v  0.5000 0.6143 0.3000
v  0.5000 0.6143 0.5000
v  0.5000 -0.3857 0.5000
v  0.3000 -0.3857 -0.5000
v  0.3000 0.6143 -0.5000
v  0.5000 0.6143 -0.5000
v  0.5000 -0.3857 -0.5000
v  -0.5000 -0.3857 -0.3000
v  -0.5000 0.6143 -0.3000
v  -0.5000 0.6143 -0.5000
v  -0.5000 -0.3857 -0.5000
v  -0.1000 -0.3857 -0.5000
v  -0.1000 -0.3857 -0.3000
v  -0.3000 -0.3857 -0.3000
v  -0.3000 -0.3857 -0.5000
v  -0.1000 0.2143 0.5000
v  -0.1000 0.2143 0.3000
v  -0.1000 -0.3857 0.5000
v  -0.3000 0.6143 -0.5000
v  -0.1000 0.2143 -0.5000
v  0.1000 -0.3857 -0.5000
v  0.1000 -0.3857 -0.3000
v  0.1000 0.2143 0.5000
v  0.1000 0.2143 0.3000
v  0.1000 -0.3857 0.5000
v  0.1000 0.2143 -0.5000
v  0.3000 -0.3857 -0.3000
v  0.3000 0.6143 0.5000
v  0.3000 0.6143 0.3000
v  0.3000 -0.3857 0.5000
v  0.5000 -0.3857 -0.3000
v  -0.3000 0.6143 -0.3000
v  0.5000 0.6143 -0.3000
v  -0.5000 -0.3857 -0.1000
v  -0.5000 0.2143 -0.1000
v  -0.1000 -0.3857 -0.1000
v  -0.3000 -0.3857 -0.1000
v  -0.1000 0.2143 -0.3000
v  0.1000 -0.3857 -0.1000
v  0.1000 0.2143 -0.3000
v  0.3000 -0.3857 -0.1000
v  0.3000 0.6143 -0.3000
v  0.5000 -0.3857 -0.1000
v  -0.3000 0.2143 -0.1000
v  0.5000 0.2143 -0.1000
v  -0.1000 0.2143 -0.1000
v  0.1000 0.2143 -0.1000
v  0.3000 0.2143 -0.1000
v  -0.5000 -0.3857 0.1000
v  -0.5000 0.2143 0.1000
v  -0.1000 -0.3857 0.1000
v  -0.3000 -0.3857 0.1000
v  0.1000 -0.3857 0.1000
v  0.3000 -0.3857 0.1000
v  0.5000 -0.3857 0.1000
v  -0.3000 0.2143 0.1000
v  0.5000 0.2143 0.1000
v  -0.1000 0.2143 0.1000
v  0.1000 0.2143 0.1000
v  0.3000 0.2143 0.1000
v  -0.1000 -0.3857 0.3000
v  0.1000 -0.3857 0.3000
v  0.3000 -0.3857 0.3000
# 72 vertices

vn 0.0000 -1.0000 -0.0000
vn 0.5257 0.8507 -0.0000
vn 0.4248 0.7994 -0.4248
vn 0.0000 0.8507 -0.5257
vn 0.0000 1.0000 -0.0000
vn 0.0000 0.0000 1.0000
vn 1.0000 0.0000 -0.0000
vn 0.0000 0.0000 -1.0000
vn -1.0000 0.0000 -0.0000
vn -0.5257 0.8507 -0.0000
vn -0.4009 0.9039 -0.1492
vn -0.4461 0.7759 -0.4461
vn 0.0000 0.8507 0.5257
vn 0.4461 0.7759 0.4461
vn 0.4009 0.9039 0.1492
vn -0.4248 0.7994 0.4248
vn 0.1492 0.9039 0.4009
vn -0.1737 0.9694 0.1737
vn 0.1737 0.9694 -0.1737
vn -0.1492 0.9039 -0.4009
# 20 vertex normals

vt 0.2863 0.3799 0.0000
vt 0.2291 0.3799 0.0000
vt 0.2291 0.3226 0.0000
vt 0.2863 0.3226 0.0000
vt 0.9565 0.1036 0.0000
vt 0.9086 0.1001 0.0000
vt 0.9042 0.0498 0.0000
vt 0.9582 0.0458 0.0000
vt 0.0579 0.6564 0.0000
vt 0.0579 0.9427 0.0000
vt 0.0006 0.9427 0.0000
vt 0.0006 0.6564 0.0000
vt 0.3891 0.6543 0.0000
vt 0.3891 0.9407 0.0000
vt 0.3318 0.9407 0.0000
vt 0.3318 0.6543 0.0000
vt 0.7109 0.6556 0.0000
vt 0.7109 0.9419 0.0000
vt 0.6537 0.9419 0.0000
vt 0.6537 0.6556 0.0000
vt 0.3910 0.3226 0.0000
vt 0.3910 0.6090 0.0000
vt 0.3338 0.6090 0.0000
vt 0.3338 0.3226 0.0000
vt 0.1718 0.6090 0.0000
vt 0.1718 0.5517 0.0000
vt 0.2291 0.5517 0.0000
vt 0.2291 0.6089 0.0000
vt 0.9305 0.2264 0.0000
vt 0.8666 0.2131 0.0000
vt 0.1145 0.6564 0.0000
vt 0.1145 0.8282 0.0000
vt 0.9400 0.6556 0.0000
vt 0.9400 0.9419 0.0000
vt 0.8828 0.9419 0.0000
vt 0.8828 0.6556 0.0000
vt 0.8255 0.8274 0.0000
vt 0.8255 0.6556 0.0000
vt 0.1145 0.6090 0.0000
vt 0.1145 0.5517 0.0000
vt 0.2025 0.0156 0.0000
vt 0.2025 0.0720 0.0000
vt 0.1459 0.0720 0.0000
vt 0.1459 0.0156 0.0000
vt 0.1718 0.6564 0.0000
vt 0.1718 0.8282 0.0000
vt 0.7682 0.8274 0.0000
vt 0.7682 0.6556 0.0000
vt 0.0573 0.6090 0.0000
vt 0.0573 0.5517 0.0000
vt 0.9109 0.4624 0.0000
vt 0.8640 0.4766 0.0000
vt 0.8031 0.3633 0.0000
vt 0.8593 0.3530 0.0000
vt 0.2291 0.6564 0.0000
vt 0.2291 0.9427 0.0000
vt 0.0000 0.6090 0.0000
vt 0.0000 0.5517 0.0000
vt 0.9184 0.5192 0.0000
vt 0.8617 0.5267 0.0000
vt 0.2863 0.6564 0.0000
vt 0.2863 0.9427 0.0000
vt 0.2863 0.6089 0.0000
vt 0.2863 0.5517 0.0000
vt 0.5021 0.1344 0.0000
vt 0.5357 0.1773 0.0000
vt 0.4864 0.2083 0.0000
vt 0.4624 0.1663 0.0000
vt 0.6182 0.6543 0.0000
vt 0.6182 0.9407 0.0000
vt 0.5609 0.9407 0.0000
vt 0.5609 0.6543 0.0000
vt 0.4483 0.3226 0.0000
vt 0.4483 0.4944 0.0000
vt 0.1718 0.4944 0.0000
vt 0.2291 0.4944 0.0000
vt 0.4160 0.0490 0.0000
vt 0.3736 0.0900 0.0000
vt 0.1145 0.4944 0.0000
vt 0.2025 0.2982 0.0000
vt 0.1459 0.2982 0.0000
vt 0.1459 0.2413 0.0000
vt 0.2025 0.2413 0.0000
vt 0.0573 0.4944 0.0000
vt 0.5744 0.1878 0.0000
vt 0.5877 0.0628 0.0000
vt 0.6533 0.0695 0.0000
vt 0.6223 0.1862 0.0000
vt 0.0000 0.4944 0.0000
vt 0.5788 0.2459 0.0000
vt 0.6319 0.2363 0.0000
vt 0.2863 0.4944 0.0000
vt 0.3692 0.2554 0.0000
vt 0.3444 0.1946 0.0000
vt 0.5036 0.8261 0.0000
vt 0.5036 0.6543 0.0000
vt 0.3255 0.1271 0.0000
vt 0.1459 0.1845 0.0000
vt 0.2025 0.1845 0.0000
vt 0.7214 0.0844 0.0000
vt 0.7317 0.1443 0.0000
vt 0.7478 0.2005 0.0000
vt 0.5056 0.3226 0.0000
vt 0.5056 0.4944 0.0000
vt 0.1718 0.4371 0.0000
vt 0.2291 0.4371 0.0000
vt 0.1145 0.4371 0.0000
vt 0.0573 0.4371 0.0000
vt 0.0000 0.4371 0.0000
vt 0.2863 0.4371 0.0000
vt 0.0893 0.1845 0.0000
vt 0.0327 0.1845 0.0000
vt 0.0327 0.1280 0.0000
vt 0.0893 0.1280 0.0000
vt 0.4464 0.8261 0.0000
vt 0.4464 0.6543 0.0000
vt 0.1459 0.1280 0.0000
vt 0.2025 0.1280 0.0000
vt 0.2591 0.1845 0.0000
vt 0.2591 0.1280 0.0000
vt 0.3157 0.1845 0.0000
vt 0.3157 0.1280 0.0000
vt 0.5628 0.3226 0.0000
vt 0.5628 0.6090 0.0000
vt 0.1718 0.3799 0.0000
vt 0.1145 0.3799 0.0000
vt 0.0573 0.3799 0.0000
vt 0.0000 0.3799 0.0000
vt 0.7965 0.1312 0.0000
vt 0.7861 0.0735 0.0000
vt 0.8005 0.1913 0.0000
vt 0.7395 0.4365 0.0000
vt 0.7313 0.3582 0.0000
vt 0.7377 0.5050 0.0000
vt 0.6201 0.3226 0.0000
vt 0.6201 0.6090 0.0000
vt 0.1718 0.3226 0.0000
vt 0.1145 0.3226 0.0000
vt 0.0573 0.3226 0.0000
vt 0.0000 0.3226 0.0000
# 140 texture coords

g Box001
usemtl wire_148177027
s 2
f 1/1/1 2/2/1 3/3/1 
f 3/3/1 4/4/1 1/1/1 
s 4
f 5/5/2 6/6/3 7/7/4 
f 7/7/4 8/8/5 5/5/2 
s 8
f 3/9/6 5/10/6 8/11/6 
f 8/11/6 4/12/6 3/9/6 
s 16
f 9/13/7 10/14/7 11/15/7 
f 11/15/7 12/16/7 9/13/7 
s 32
f 13/17/8 14/18/8 15/19/8 
f 15/19/8 16/20/8 13/17/8 
s 64
f 17/21/9 18/22/9 19/23/9 
f 19/23/9 20/24/9 17/21/9 
s 2
f 21/25/1 22/26/1 23/27/1 
f 23/27/1 24/28/1 21/25/1 
s 4
f 25/29/2 26/30/2 6/6/3 
f 6/6/3 5/5/2 25/29/2 
s 8
f 27/31/6 25/32/6 5/10/6 
f 5/10/6 3/9/6 27/31/6 
s 32
f 20/33/8 19/34/8 28/35/8 
f 28/35/8 24/36/8 20/33/8 
f 24/36/8 28/35/8 29/37/8 
f 29/37/8 21/38/8 24/36/8 
s 2
f 30/39/1 31/40/1 22/26/1 
f 22/26/1 21/25/1 30/39/1 
s 4
f 32/41/10 33/42/11 26/43/2 
f 26/43/2 25/44/2 32/41/10 
s 8
f 34/45/6 32/46/6 25/32/6 
f 25/32/6 27/31/6 34/45/6 
s 32
f 21/38/8 29/37/8 35/47/8 
f 35/47/8 30/48/8 21/38/8 
s 2
f 13/49/1 36/50/1 31/40/1 
f 31/40/1 30/39/1 13/49/1 
s 4
f 37/51/10 38/52/12 33/53/11 
f 33/53/11 32/54/10 37/51/10 
s 8
f 39/55/6 37/56/6 32/46/6 
f 32/46/6 34/45/6 39/55/6 
s 32
f 30/48/8 35/47/8 14/18/8 
f 14/18/8 13/17/8 30/48/8 
s 2
f 16/57/1 40/58/1 36/50/1 
f 36/50/1 13/49/1 16/57/1 
s 4
f 11/59/5 10/60/4 38/52/12 
f 38/52/12 37/51/10 11/59/5 
s 8
f 12/61/6 11/62/6 37/56/6 
f 37/56/6 39/55/6 12/61/6 
s 2
f 20/63/1 24/28/1 23/27/1 
f 23/27/1 17/64/1 20/63/1 
s 4
f 28/65/2 19/66/5 18/67/13 
f 18/67/13 41/68/14 28/65/2 
s 16
f 16/69/7 15/70/7 42/71/7 
f 42/71/7 40/72/7 16/69/7 
s 64
f 43/73/9 44/74/9 18/22/9 
f 18/22/9 17/21/9 43/73/9 
s 2
f 45/75/1 46/76/1 23/27/1 
f 23/27/1 22/26/1 45/75/1 
s 4
f 29/77/2 28/65/2 41/68/14 
f 41/68/14 47/78/15 29/77/2 
s 2
f 48/79/1 45/75/1 22/26/1 
f 22/26/1 31/40/1 48/79/1 
s 4
f 35/80/10 29/81/2 47/82/15 
f 47/82/15 49/83/10 35/80/10 
s 2
f 50/84/1 48/79/1 31/40/1 
f 31/40/1 36/50/1 50/84/1 
s 4
f 14/85/10 35/86/10 49/87/10 
f 49/87/10 51/88/16 14/85/10 
s 2
f 52/89/1 50/84/1 36/50/1 
f 36/50/1 40/58/1 52/89/1 
s 4
f 15/90/5 14/85/10 51/88/16 
f 51/88/16 42/91/13 15/90/5 
s 2
f 17/64/1 23/27/1 46/76/1 
f 46/76/1 43/92/1 17/64/1 
s 4
f 41/68/14 18/67/13 44/93/13 
f 44/93/13 53/94/17 41/68/14 
s 16
f 40/72/7 42/71/7 54/95/7 
f 54/95/7 52/96/7 40/72/7 
s 4
f 47/78/15 41/68/14 53/94/17 
f 53/94/17 55/97/5 47/78/15 
f 49/83/10 47/82/15 55/98/5 
f 55/98/5 56/99/18 49/83/10 
f 51/88/16 49/87/10 56/100/18 
f 56/100/18 57/101/13 51/88/16 
f 42/91/13 51/88/16 57/101/13 
f 57/101/13 54/102/13 42/91/13 
s 64
f 58/103/9 59/104/9 44/74/9 
f 44/74/9 43/73/9 58/103/9 
s 2
f 60/105/1 61/106/1 46/76/1 
f 46/76/1 45/75/1 60/105/1 
f 62/107/1 60/105/1 45/75/1 
f 45/75/1 48/79/1 62/107/1 
f 63/108/1 62/107/1 48/79/1 
f 48/79/1 50/84/1 63/108/1 
f 64/109/1 63/108/1 50/84/1 
f 50/84/1 52/89/1 64/109/1 
f 43/92/1 46/76/1 61/106/1 
f 61/106/1 58/110/1 43/92/1 
s 4
f 53/111/17 44/112/13 59/113/4 
f 59/113/4 65/114/4 53/111/17 
s 16
f 52/96/7 54/95/7 66/115/7 
f 66/115/7 64/116/7 52/96/7 
s 4
f 55/98/5 53/111/17 65/114/4 
f 65/114/4 67/117/19 55/98/5 
f 56/99/18 55/98/5 67/117/19 
f 67/117/19 68/118/5 56/99/18 
f 57/119/13 56/99/18 68/118/5 
f 68/118/5 69/120/20 57/119/13 
f 54/121/13 57/119/13 69/120/20 
f 69/120/20 66/122/4 54/121/13 
s 64
f 1/123/9 7/124/9 59/104/9 
f 59/104/9 58/103/9 1/123/9 
s 2
f 70/125/1 2/2/1 61/106/1 
f 61/106/1 60/105/1 70/125/1 
f 71/126/1 70/125/1 60/105/1 
f 60/105/1 62/107/1 71/126/1 
f 72/127/1 71/126/1 62/107/1 
f 62/107/1 63/108/1 72/127/1 
f 9/128/1 72/127/1 63/108/1 
f 63/108/1 64/109/1 9/128/1 
f 58/110/1 61/106/1 2/2/1 
f 2/2/1 1/1/1 58/110/1 
s 4
f 65/129/4 59/130/4 7/7/4 
f 7/7/4 6/6/3 65/129/4 
s 16
f 64/116/7 66/115/7 10/14/7 
f 10/14/7 9/13/7 64/116/7 
s 4
f 67/131/19 65/129/4 6/6/3 
f 6/6/3 26/30/2 67/131/19 
f 68/118/5 67/117/19 26/43/2 
f 26/43/2 33/42/11 68/118/5 
f 69/132/20 68/133/5 33/53/11 
f 33/53/11 38/52/12 69/132/20 
f 66/134/4 69/132/20 38/52/12 
f 38/52/12 10/60/4 66/134/4 
s 64
f 4/135/9 8/136/9 7/124/9 
f 7/124/9 1/123/9 4/135/9 
s 2
f 27/137/1 3/3/1 2/2/1 
f 2/2/1 70/125/1 27/137/1 
f 34/138/1 27/137/1 70/125/1 
f 70/125/1 71/126/1 34/138/1 
f 39/139/1 34/138/1 71/126/1 
f 71/126/1 72/127/1 39/139/1 
f 12/140/1 39/139/1 72/127/1 
f 72/127/1 9/128/1 12/140/1 
# 140 faces

