# 3ds Max Wavefront OBJ Exporter v0.97b - (c)2007 guruware
# File Created: 23.05.2013 12:01:02

mtllib drain4Way.mtl

#
# object Box001
#

v  -2.5000 0.0000 1.5000
v  -1.5000 0.0000 1.5000
v  -1.5000 0.0000 2.5000
v  -2.5000 0.0000 2.5000
v  -1.5000 5.0000 2.5000
v  -1.5000 5.0000 1.5000
v  -2.5000 5.0000 1.5000
v  -2.5000 5.0000 2.5000
v  2.5000 0.0000 1.5000
v  2.5000 5.0000 1.5000
v  2.5000 5.0000 2.5000
v  2.5000 0.0000 2.5000
v  1.5000 0.0000 -2.5000
v  1.5000 5.0000 -2.5000
v  2.5000 5.0000 -2.5000
v  2.5000 0.0000 -2.5000
v  -2.5000 0.0000 -1.5000
v  -2.5000 5.0000 -1.5000
v  -2.5000 5.0000 -2.5000
v  -2.5000 0.0000 -2.5000
v  -0.5000 0.0000 -2.5000
v  -0.5000 0.0000 -1.5000
v  -1.5000 0.0000 -1.5000
v  -1.5000 0.0000 -2.5000
v  -0.5000 3.0000 2.5000
v  -0.5000 3.0000 1.5000
v  -0.5000 0.0000 2.5000
v  -1.5000 5.0000 -2.5000
v  -0.5000 3.0000 -2.5000
v  0.5000 0.0000 -2.5000
v  0.5000 0.0000 -1.5000
v  0.5000 3.0000 2.5000
v  0.5000 3.0000 1.5000
v  0.5000 0.0000 2.5000
v  0.5000 3.0000 -2.5000
v  1.5000 0.0000 -1.5000
v  1.5000 5.0000 2.5000
v  1.5000 5.0000 1.5000
v  1.5000 0.0000 2.5000
v  2.5000 0.0000 -1.5000
v  -1.5000 5.0000 -1.5000
v  2.5000 5.0000 -1.5000
v  -2.5000 0.0000 -0.5000
v  -2.5000 3.0000 -0.5000
v  -0.5000 0.0000 -0.5000
v  -1.5000 0.0000 -0.5000
v  -0.5000 3.0000 -1.5000
v  0.5000 0.0000 -0.5000
v  0.5000 3.0000 -1.5000
v  1.5000 0.0000 -0.5000
v  1.5000 5.0000 -1.5000
v  2.5000 0.0000 -0.5000
v  -1.5000 3.0000 -0.5000
v  2.5000 3.0000 -0.5000
v  -0.5000 3.0000 -0.5000
v  0.5000 3.0000 -0.5000
v  1.5000 3.0000 -0.5000
v  -2.5000 0.0000 0.5000
v  -2.5000 3.0000 0.5000
v  -0.5000 0.0000 0.5000
v  -1.5000 0.0000 0.5000
v  0.5000 0.0000 0.5000
v  1.5000 0.0000 0.5000
v  2.5000 0.0000 0.5000
v  -1.5000 3.0000 0.5000
v  2.5000 3.0000 0.5000
v  -0.5000 3.0000 0.5000
v  0.5000 3.0000 0.5000
v  1.5000 3.0000 0.5000
v  -0.5000 0.0000 1.5000
v  0.5000 0.0000 1.5000
v  1.5000 0.0000 1.5000
# 72 vertices

vn 0.0000 -1.0000 -0.0000
vn 0.5257 0.8507 -0.0000
vn 0.4248 0.7994 -0.4248
vn 0.0000 0.8507 -0.5257
vn 0.0000 1.0000 -0.0000
vn 0.0000 0.0000 1.0000
vn 1.0000 0.0000 -0.0000
vn 0.0000 0.0000 -1.0000
vn 0.0000 -0.0000 -1.0000
vn -1.0000 0.0000 -0.0000
vn -0.0000 0.0000 -1.0000
vn -0.0000 -0.0000 -1.0000
vn -0.5257 0.8507 -0.0000
vn -0.4009 0.9039 -0.1492
vn -0.0000 0.0000 1.0000
vn -0.4461 0.7759 -0.4461
vn -0.0000 -0.0000 1.0000
vn 0.0000 0.8507 0.5257
vn 0.4461 0.7759 0.4461
vn 0.4009 0.9039 0.1492
vn -0.5257 0.8507 0.0000
vn -0.4248 0.7994 0.4248
vn 0.1492 0.9039 0.4009
vn 0.0000 1.0000 0.0000
vn -0.1737 0.9694 0.1737
vn -0.0000 0.8507 0.5257
vn -0.0000 0.8507 -0.5257
vn 0.1737 0.9694 -0.1737
vn -0.0000 1.0000 -0.0000
vn -0.1492 0.9039 -0.4009
# 30 vertex normals

vt 0.3139 0.4720 0.0000
vt 0.2512 0.4720 0.0000
vt 0.2512 0.4092 0.0000
vt 0.3139 0.4092 0.0000
vt 0.0788 0.0000 0.0000
vt 0.0788 0.0788 0.0000
vt 0.0000 0.0788 0.0000
vt 0.0000 0.0000 0.0000
vt 0.4668 0.6061 0.0000
vt 0.4668 0.8938 0.0000
vt 0.4092 0.8938 0.0000
vt 0.4092 0.6061 0.0000
vt 0.7698 0.0000 0.0000
vt 0.7698 0.2877 0.0000
vt 0.7123 0.2877 0.0000
vt 0.7123 0.0000 0.0000
vt 0.4668 0.3030 0.0000
vt 0.4668 0.5908 0.0000
vt 0.4092 0.5908 0.0000
vt 0.4092 0.3030 0.0000
vt 0.4668 0.0000 0.0000
vt 0.4668 0.2877 0.0000
vt 0.4092 0.2877 0.0000
vt 0.4092 0.0000 0.0000
vt 0.1884 0.7232 0.0000
vt 0.1884 0.6604 0.0000
vt 0.2512 0.6604 0.0000
vt 0.2512 0.7232 0.0000
vt 0.1576 0.0000 0.0000
vt 0.1576 0.0788 0.0000
vt 0.5243 0.6061 0.0000
vt 0.5243 0.8938 0.0000
vt 0.6970 0.3030 0.0000
vt 0.6970 0.5908 0.0000
vt 0.6394 0.5908 0.0000
vt 0.6394 0.3030 0.0000
vt 0.5819 0.5908 0.0000
vt 0.5819 0.3030 0.0000
vt 0.1256 0.7232 0.0000
vt 0.1256 0.6604 0.0000
vt 0.2364 0.0000 0.0000
vt 0.2364 0.0788 0.0000
vt 0.5819 0.6061 0.0000
vt 0.5819 0.8938 0.0000
vt 0.5243 0.5908 0.0000
vt 0.5243 0.3030 0.0000
vt 0.0628 0.7232 0.0000
vt 0.0628 0.6604 0.0000
vt 0.3151 0.0000 0.0000
vt 0.3151 0.0788 0.0000
vt 0.6394 0.6061 0.0000
vt 0.6394 0.8938 0.0000
vt 0.0000 0.7232 0.0000
vt 0.0000 0.6604 0.0000
vt 0.3939 0.0000 0.0000
vt 0.3939 0.0788 0.0000
vt 0.6970 0.6061 0.0000
vt 0.6970 0.8938 0.0000
vt 0.3139 0.7232 0.0000
vt 0.3139 0.6604 0.0000
vt 0.0788 0.3939 0.0000
vt 0.0000 0.3939 0.0000
vt 0.0000 0.3151 0.0000
vt 0.0788 0.3151 0.0000
vt 1.0000 0.0000 0.0000
vt 1.0000 0.2877 0.0000
vt 0.9425 0.2877 0.0000
vt 0.9425 0.0000 0.0000
vt 0.5243 0.0000 0.0000
vt 0.5243 0.2877 0.0000
vt 0.1884 0.5976 0.0000
vt 0.2512 0.5976 0.0000
vt 0.1576 0.3939 0.0000
vt 0.1576 0.3151 0.0000
vt 0.1256 0.5976 0.0000
vt 0.2364 0.3939 0.0000
vt 0.2364 0.3151 0.0000
vt 0.0628 0.5976 0.0000
vt 0.3151 0.3939 0.0000
vt 0.3151 0.3151 0.0000
vt 0.0000 0.5976 0.0000
vt 0.3939 0.3939 0.0000
vt 0.3939 0.3151 0.0000
vt 0.3139 0.5976 0.0000
vt 0.0000 0.2364 0.0000
vt 0.0788 0.2364 0.0000
vt 0.8849 0.2877 0.0000
vt 0.8849 0.0000 0.0000
vt 0.1576 0.2364 0.0000
vt 0.2364 0.2364 0.0000
vt 0.3151 0.2364 0.0000
vt 0.3939 0.2364 0.0000
vt 0.5819 0.0000 0.0000
vt 0.5819 0.2877 0.0000
vt 0.1884 0.5348 0.0000
vt 0.2512 0.5348 0.0000
vt 0.1256 0.5348 0.0000
vt 0.0628 0.5348 0.0000
vt 0.0000 0.5348 0.0000
vt 0.3139 0.5348 0.0000
vt 0.0000 0.1576 0.0000
vt 0.0788 0.1576 0.0000
vt 0.8274 0.2877 0.0000
vt 0.8274 0.0000 0.0000
vt 0.1576 0.1576 0.0000
vt 0.2364 0.1576 0.0000
vt 0.3151 0.1576 0.0000
vt 0.3939 0.1576 0.0000
vt 0.6394 0.0000 0.0000
vt 0.6394 0.2877 0.0000
vt 0.1884 0.4720 0.0000
vt 0.1256 0.4720 0.0000
vt 0.0628 0.4720 0.0000
vt 0.0000 0.4720 0.0000
vt 0.6970 0.0000 0.0000
vt 0.6970 0.2877 0.0000
vt 0.1884 0.4092 0.0000
vt 0.1256 0.4092 0.0000
vt 0.0628 0.4092 0.0000
vt 0.0000 0.4092 0.0000
# 120 texture coords

g Box001
usemtl wire_184155229
s 2
f 1/1/1 2/2/1 3/3/1 
f 3/3/1 4/4/1 1/1/1 
s 4
f 5/5/2 6/6/3 7/7/4 
f 7/7/4 8/8/5 5/5/2 
s 8
f 3/9/6 5/10/6 8/11/6 
f 8/11/6 4/12/6 3/9/6 
s 16
f 9/13/7 10/14/7 11/15/7 
f 11/15/7 12/16/7 9/13/7 
s 32
f 13/17/8 14/18/9 15/19/8 
f 15/19/8 16/20/8 13/17/8 
s 64
f 17/21/10 18/22/10 19/23/10 
f 19/23/10 20/24/10 17/21/10 
s 2
f 21/25/1 22/26/1 23/27/1 
f 23/27/1 24/28/1 21/25/1 
s 4
f 25/29/2 26/30/2 6/6/3 
f 6/6/3 5/5/2 25/29/2 
s 8
f 27/31/6 25/32/6 5/10/6 
f 5/10/6 3/9/6 27/31/6 
s 32
f 20/33/8 19/34/8 28/35/11 
f 28/35/11 24/36/12 20/33/8 
f 24/36/12 28/35/11 29/37/12 
f 29/37/12 21/38/9 24/36/12 
s 2
f 30/39/1 31/40/1 22/26/1 
f 22/26/1 21/25/1 30/39/1 
s 4
f 32/41/13 33/42/14 26/30/2 
f 26/30/2 25/29/2 32/41/13 
s 8
f 34/43/6 32/44/15 25/32/6 
f 25/32/6 27/31/6 34/43/6 
s 32
f 21/38/9 29/37/12 35/45/9 
f 35/45/9 30/46/9 21/38/9 
s 2
f 13/47/1 36/48/1 31/40/1 
f 31/40/1 30/39/1 13/47/1 
s 4
f 37/49/13 38/50/16 33/42/14 
f 33/42/14 32/41/13 37/49/13 
s 8
f 39/51/15 37/52/17 32/44/15 
f 32/44/15 34/43/6 39/51/15 
s 32
f 30/46/9 35/45/9 14/18/9 
f 14/18/9 13/17/8 30/46/9 
s 2
f 16/53/1 40/54/1 36/48/1 
f 36/48/1 13/47/1 16/53/1 
s 4
f 11/55/5 10/56/4 38/50/16 
f 38/50/16 37/49/13 11/55/5 
s 8
f 12/57/6 11/58/6 37/52/17 
f 37/52/17 39/51/15 12/57/6 
s 2
f 20/59/1 24/28/1 23/27/1 
f 23/27/1 17/60/1 20/59/1 
s 4
f 28/61/2 19/62/5 18/63/18 
f 18/63/18 41/64/19 28/61/2 
s 16
f 16/65/7 15/66/7 42/67/7 
f 42/67/7 40/68/7 16/65/7 
s 64
f 43/69/10 44/70/10 18/22/10 
f 18/22/10 17/21/10 43/69/10 
s 2
f 45/71/1 46/72/1 23/27/1 
f 23/27/1 22/26/1 45/71/1 
s 4
f 29/73/2 28/61/2 41/64/19 
f 41/64/19 47/74/20 29/73/2 
s 2
f 48/75/1 45/71/1 22/26/1 
f 22/26/1 31/40/1 48/75/1 
s 4
f 35/76/21 29/73/2 47/74/20 
f 47/74/20 49/77/21 35/76/21 
s 2
f 50/78/1 48/75/1 31/40/1 
f 31/40/1 36/48/1 50/78/1 
s 4
f 14/79/21 35/76/21 49/77/21 
f 49/77/21 51/80/22 14/79/21 
s 2
f 52/81/1 50/78/1 36/48/1 
f 36/48/1 40/54/1 52/81/1 
s 4
f 15/82/5 14/79/21 51/80/22 
f 51/80/22 42/83/18 15/82/5 
s 2
f 17/60/1 23/27/1 46/72/1 
f 46/72/1 43/84/1 17/60/1 
s 4
f 41/64/19 18/63/18 44/85/18 
f 44/85/18 53/86/23 41/64/19 
s 16
f 40/68/7 42/67/7 54/87/7 
f 54/87/7 52/88/7 40/68/7 
s 4
f 47/74/20 41/64/19 53/86/23 
f 53/86/23 55/89/24 47/74/20 
f 49/77/21 47/74/20 55/89/24 
f 55/89/24 56/90/25 49/77/21 
f 51/80/22 49/77/21 56/90/25 
f 56/90/25 57/91/26 51/80/22 
f 42/83/18 51/80/22 57/91/26 
f 57/91/26 54/92/18 42/83/18 
s 64
f 58/93/10 59/94/10 44/70/10 
f 44/70/10 43/69/10 58/93/10 
s 2
f 60/95/1 61/96/1 46/72/1 
f 46/72/1 45/71/1 60/95/1 
f 62/97/1 60/95/1 45/71/1 
f 45/71/1 48/75/1 62/97/1 
f 63/98/1 62/97/1 48/75/1 
f 48/75/1 50/78/1 63/98/1 
f 64/99/1 63/98/1 50/78/1 
f 50/78/1 52/81/1 64/99/1 
f 43/84/1 46/72/1 61/96/1 
f 61/96/1 58/100/1 43/84/1 
s 4
f 53/86/23 44/85/18 59/101/27 
f 59/101/27 65/102/4 53/86/23 
s 16
f 52/88/7 54/87/7 66/103/7 
f 66/103/7 64/104/7 52/88/7 
s 4
f 55/89/24 53/86/23 65/102/4 
f 65/102/4 67/105/28 55/89/24 
f 56/90/25 55/89/24 67/105/28 
f 67/105/28 68/106/29 56/90/25 
f 57/91/26 56/90/25 68/106/29 
f 68/106/29 69/107/30 57/91/26 
f 54/92/18 57/91/26 69/107/30 
f 69/107/30 66/108/4 54/92/18 
s 64
f 1/109/10 7/110/10 59/94/10 
f 59/94/10 58/93/10 1/109/10 
s 2
f 70/111/1 2/2/1 61/96/1 
f 61/96/1 60/95/1 70/111/1 
f 71/112/1 70/111/1 60/95/1 
f 60/95/1 62/97/1 71/112/1 
f 72/113/1 71/112/1 62/97/1 
f 62/97/1 63/98/1 72/113/1 
f 9/114/1 72/113/1 63/98/1 
f 63/98/1 64/99/1 9/114/1 
f 58/100/1 61/96/1 2/2/1 
f 2/2/1 1/1/1 58/100/1 
s 4
f 65/102/4 59/101/27 7/7/4 
f 7/7/4 6/6/3 65/102/4 
s 16
f 64/104/7 66/103/7 10/14/7 
f 10/14/7 9/13/7 64/104/7 
s 4
f 67/105/28 65/102/4 6/6/3 
f 6/6/3 26/30/2 67/105/28 
f 68/106/29 67/105/28 26/30/2 
f 26/30/2 33/42/14 68/106/29 
f 69/107/30 68/106/29 33/42/14 
f 33/42/14 38/50/16 69/107/30 
f 66/108/4 69/107/30 38/50/16 
f 38/50/16 10/56/4 66/108/4 
s 64
f 4/115/10 8/116/10 7/110/10 
f 7/110/10 1/109/10 4/115/10 
s 2
f 27/117/1 3/3/1 2/2/1 
f 2/2/1 70/111/1 27/117/1 
f 34/118/1 27/117/1 70/111/1 
f 70/111/1 71/112/1 34/118/1 
f 39/119/1 34/118/1 71/112/1 
f 71/112/1 72/113/1 39/119/1 
f 12/120/1 39/119/1 72/113/1 
f 72/113/1 9/114/1 12/120/1 
# 140 faces

