# 3ds Max Wavefront OBJ Exporter v0.97b - (c)2007 guruware
# File Created: 23.05.2013 11:50:31

mtllib drain1Way.mtl

#
# object Box001
#

v  -2.5000 0.0000 1.5000
v  -1.5000 0.0000 1.5000
v  -1.5000 0.0000 2.5000
v  -2.5000 0.0000 2.5000
v  -1.5000 5.0000 2.5000
v  -1.5000 5.0000 1.5000
v  -2.5000 5.0000 1.5000
v  -2.5000 5.0000 2.5000
v  2.5000 0.0000 1.5000
v  2.5000 5.0000 1.5000
v  2.5000 5.0000 2.5000
v  2.5000 0.0000 2.5000
v  1.5000 0.0000 -2.5000
v  1.5000 5.0000 -2.5000
v  2.5000 5.0000 -2.5000
v  2.5000 0.0000 -2.5000
v  -2.5000 0.0000 -1.5000
v  -2.5000 5.0000 -1.5000
v  -2.5000 5.0000 -2.5000
v  -2.5000 0.0000 -2.5000
v  -0.5000 0.0000 -2.5000
v  -0.5000 0.0000 -1.5000
v  -1.5000 0.0000 -1.5000
v  -1.5000 0.0000 -2.5000
v  -0.5000 3.0000 2.5000
v  -0.5000 3.0000 1.5000
v  -0.5000 0.0000 2.5000
v  -1.5000 5.0000 -2.5000
v  -0.5000 5.0000 -2.5000
v  0.5000 0.0000 -2.5000
v  0.5000 0.0000 -1.5000
v  0.5000 3.0000 2.5000
v  0.5000 3.0000 1.5000
v  0.5000 0.0000 2.5000
v  0.5000 5.0000 -2.5000
v  1.5000 0.0000 -1.5000
v  1.5000 5.0000 2.5000
v  1.5000 5.0000 1.5000
v  1.5000 0.0000 2.5000
v  2.5000 0.0000 -1.5000
v  -1.5000 5.0000 -1.5000
v  2.5000 5.0000 -1.5000
v  -2.5000 0.0000 -0.5000
v  -2.5000 5.0000 -0.5000
v  -0.5000 0.0000 -0.5000
v  -1.5000 0.0000 -0.5000
v  -0.5000 5.0000 -1.5000
v  0.5000 0.0000 -0.5000
v  0.5000 5.0000 -1.5000
v  1.5000 0.0000 -0.5000
v  1.5000 5.0000 -1.5000
v  2.5000 0.0000 -0.5000
v  -1.5000 5.0000 -0.5000
v  2.5000 5.0000 -0.5000
v  -0.5000 3.0000 -0.5000
v  0.5000 3.0000 -0.5000
v  1.5000 5.0000 -0.5000
v  -2.5000 0.0000 0.5000
v  -2.5000 5.0000 0.5000
v  -0.5000 0.0000 0.5000
v  -1.5000 0.0000 0.5000
v  0.5000 0.0000 0.5000
v  1.5000 0.0000 0.5000
v  2.5000 0.0000 0.5000
v  -1.5000 5.0000 0.5000
v  2.5000 5.0000 0.5000
v  -0.5000 3.0000 0.5000
v  0.5000 3.0000 0.5000
v  1.5000 5.0000 0.5000
v  -0.5000 0.0000 1.5000
v  0.5000 0.0000 1.5000
v  1.5000 0.0000 1.5000
# 72 vertices

vn 0.0000 -1.0000 -0.0000
vn 0.5257 0.8507 -0.0000
vn 0.0000 1.0000 -0.0000
vn 0.0000 0.0000 1.0000
vn 1.0000 0.0000 -0.0000
vn 0.0000 0.0000 -1.0000
vn -1.0000 0.0000 -0.0000
vn -0.5257 0.8507 -0.0000
vn -0.0000 0.0000 1.0000
vn -0.0000 -0.0000 1.0000
vn 0.1492 0.9039 0.4009
vn 0.0000 0.8507 0.5257
vn -0.1737 0.9694 0.1737
vn 0.4009 0.9039 0.1492
vn 0.4461 0.7759 0.4461
vn -0.4248 0.7994 0.4248
vn -0.5257 0.8507 0.0000
# 17 vertex normals

vt 0.6993 0.7155 0.0000
vt 0.6371 0.7155 0.0000
vt 0.6371 0.6533 0.0000
vt 0.6993 0.6533 0.0000
vt 0.0745 0.0000 0.0000
vt 0.0745 0.0745 0.0000
vt 0.0000 0.0745 0.0000
vt 0.0000 0.0000 0.0000
vt 0.0570 0.7149 0.0000
vt 0.0570 1.0000 0.0000
vt 0.0000 1.0000 0.0000
vt 0.0000 0.7149 0.0000
vt 0.4505 0.0000 0.0000
vt 0.4505 0.3111 0.0000
vt 0.3883 0.3111 0.0000
vt 0.3883 0.0000 0.0000
vt 0.4505 0.3266 0.0000
vt 0.4505 0.6377 0.0000
vt 0.3883 0.6377 0.0000
vt 0.3883 0.3266 0.0000
vt 0.0622 0.3883 0.0000
vt 0.0622 0.6993 0.0000
vt 0.0000 0.6993 0.0000
vt 0.0000 0.3883 0.0000
vt 0.5749 0.9643 0.0000
vt 0.5749 0.9021 0.0000
vt 0.6371 0.9021 0.0000
vt 0.6371 0.9643 0.0000
vt 0.1491 0.0000 0.0000
vt 0.1491 0.0745 0.0000
vt 0.1140 0.7149 0.0000
vt 0.1140 1.0000 0.0000
vt 0.6993 0.3266 0.0000
vt 0.6993 0.6377 0.0000
vt 0.6371 0.6377 0.0000
vt 0.6371 0.3266 0.0000
vt 0.5749 0.6377 0.0000
vt 0.5749 0.3266 0.0000
vt 0.5127 0.9643 0.0000
vt 0.5127 0.9021 0.0000
vt 0.2236 0.0000 0.0000
vt 0.2236 0.0745 0.0000
vt 0.1711 0.7149 0.0000
vt 0.1711 1.0000 0.0000
vt 0.5127 0.6377 0.0000
vt 0.5127 0.3266 0.0000
vt 0.4505 0.9643 0.0000
vt 0.4505 0.9021 0.0000
vt 0.2982 0.0000 0.0000
vt 0.2982 0.0745 0.0000
vt 0.2281 0.7149 0.0000
vt 0.2281 1.0000 0.0000
vt 0.3883 0.9643 0.0000
vt 0.3883 0.9021 0.0000
vt 0.3727 0.0000 0.0000
vt 0.3727 0.0745 0.0000
vt 0.2851 0.7149 0.0000
vt 0.2851 1.0000 0.0000
vt 0.6993 0.9643 0.0000
vt 0.6993 0.9021 0.0000
vt 0.0745 0.3727 0.0000
vt 0.0000 0.3727 0.0000
vt 0.0000 0.2982 0.0000
vt 0.0745 0.2982 0.0000
vt 0.6993 0.0000 0.0000
vt 0.6993 0.3111 0.0000
vt 0.6371 0.3111 0.0000
vt 0.6371 0.0000 0.0000
vt 0.1244 0.3883 0.0000
vt 0.1244 0.6993 0.0000
vt 0.5749 0.8399 0.0000
vt 0.6371 0.8399 0.0000
vt 0.1491 0.3727 0.0000
vt 0.1491 0.2982 0.0000
vt 0.5127 0.8399 0.0000
vt 0.2236 0.3727 0.0000
vt 0.2236 0.2982 0.0000
vt 0.4505 0.8399 0.0000
vt 0.2982 0.3727 0.0000
vt 0.2982 0.2982 0.0000
vt 0.3883 0.8399 0.0000
vt 0.3727 0.3727 0.0000
vt 0.3727 0.2982 0.0000
vt 0.6993 0.8399 0.0000
vt 0.0000 0.2236 0.0000
vt 0.0745 0.2236 0.0000
vt 0.5749 0.3111 0.0000
vt 0.5749 0.0000 0.0000
vt 0.1491 0.2236 0.0000
vt 0.2236 0.2236 0.0000
vt 0.2982 0.2236 0.0000
vt 0.3727 0.2236 0.0000
vt 0.1866 0.3883 0.0000
vt 0.1866 0.6993 0.0000
vt 0.5749 0.7777 0.0000
vt 0.6371 0.7777 0.0000
vt 0.5127 0.7777 0.0000
vt 0.4505 0.7777 0.0000
vt 0.3883 0.7777 0.0000
vt 0.6993 0.7777 0.0000
vt 0.0000 0.1491 0.0000
vt 0.0745 0.1491 0.0000
vt 0.5127 0.3111 0.0000
vt 0.5127 0.0000 0.0000
vt 0.1491 0.1491 0.0000
vt 0.2236 0.1491 0.0000
vt 0.2982 0.1491 0.0000
vt 0.3727 0.1491 0.0000
vt 0.2488 0.3883 0.0000
vt 0.2488 0.6993 0.0000
vt 0.5749 0.7155 0.0000
vt 0.5127 0.7155 0.0000
vt 0.4505 0.7155 0.0000
vt 0.3883 0.7155 0.0000
vt 0.3111 0.3883 0.0000
vt 0.3111 0.6993 0.0000
vt 0.5749 0.6533 0.0000
vt 0.5127 0.6533 0.0000
vt 0.4505 0.6533 0.0000
vt 0.3883 0.6533 0.0000
# 120 texture coords

g Box001
usemtl wire_184155229
s 2
f 1/1/1 2/2/1 3/3/1 
f 3/3/1 4/4/1 1/1/1 
s 4
f 5/5/2 6/6/2 7/7/3 
f 7/7/3 8/8/3 5/5/2 
s 8
f 3/9/4 5/10/4 8/11/4 
f 8/11/4 4/12/4 3/9/4 
s 16
f 9/13/5 10/14/5 11/15/5 
f 11/15/5 12/16/5 9/13/5 
s 32
f 13/17/6 14/18/6 15/19/6 
f 15/19/6 16/20/6 13/17/6 
s 64
f 17/21/7 18/22/7 19/23/7 
f 19/23/7 20/24/7 17/21/7 
s 2
f 21/25/1 22/26/1 23/27/1 
f 23/27/1 24/28/1 21/25/1 
s 4
f 25/29/2 26/30/2 6/6/2 
f 6/6/2 5/5/2 25/29/2 
s 8
f 27/31/4 25/32/4 5/10/4 
f 5/10/4 3/9/4 27/31/4 
s 32
f 20/33/6 19/34/6 28/35/6 
f 28/35/6 24/36/6 20/33/6 
f 24/36/6 28/35/6 29/37/6 
f 29/37/6 21/38/6 24/36/6 
s 2
f 30/39/1 31/40/1 22/26/1 
f 22/26/1 21/25/1 30/39/1 
s 4
f 32/41/8 33/42/8 26/30/2 
f 26/30/2 25/29/2 32/41/8 
s 8
f 34/43/4 32/44/9 25/32/4 
f 25/32/4 27/31/4 34/43/4 
s 32
f 21/38/6 29/37/6 35/45/6 
f 35/45/6 30/46/6 21/38/6 
s 2
f 13/47/1 36/48/1 31/40/1 
f 31/40/1 30/39/1 13/47/1 
s 4
f 37/49/8 38/50/8 33/42/8 
f 33/42/8 32/41/8 37/49/8 
s 8
f 39/51/9 37/52/10 32/44/9 
f 32/44/9 34/43/4 39/51/9 
s 32
f 30/46/6 35/45/6 14/18/6 
f 14/18/6 13/17/6 30/46/6 
s 2
f 16/53/1 40/54/1 36/48/1 
f 36/48/1 13/47/1 16/53/1 
s 4
f 11/55/3 10/56/3 38/50/8 
f 38/50/8 37/49/8 11/55/3 
s 8
f 12/57/4 11/58/4 37/52/10 
f 37/52/10 39/51/9 12/57/4 
s 2
f 20/59/1 24/28/1 23/27/1 
f 23/27/1 17/60/1 20/59/1 
s 4
f 28/61/3 19/62/3 18/63/3 
f 18/63/3 41/64/3 28/61/3 
s 16
f 16/65/5 15/66/5 42/67/5 
f 42/67/5 40/68/5 16/65/5 
s 64
f 43/69/7 44/70/7 18/22/7 
f 18/22/7 17/21/7 43/69/7 
s 2
f 45/71/1 46/72/1 23/27/1 
f 23/27/1 22/26/1 45/71/1 
s 4
f 29/73/3 28/61/3 41/64/3 
f 41/64/3 47/74/11 29/73/3 
s 2
f 48/75/1 45/71/1 22/26/1 
f 22/26/1 31/40/1 48/75/1 
s 4
f 35/76/3 29/73/3 47/74/11 
f 47/74/11 49/77/12 35/76/3 
s 2
f 50/78/1 48/75/1 31/40/1 
f 31/40/1 36/48/1 50/78/1 
s 4
f 14/79/3 35/76/3 49/77/12 
f 49/77/12 51/80/13 14/79/3 
s 2
f 52/81/1 50/78/1 36/48/1 
f 36/48/1 40/54/1 52/81/1 
s 4
f 15/82/3 14/79/3 51/80/13 
f 51/80/13 42/83/3 15/82/3 
s 2
f 17/60/1 23/27/1 46/72/1 
f 46/72/1 43/84/1 17/60/1 
s 4
f 41/64/3 18/63/3 44/85/3 
f 44/85/3 53/86/14 41/64/3 
s 16
f 40/68/5 42/67/5 54/87/5 
f 54/87/5 52/88/5 40/68/5 
s 4
f 47/74/11 41/64/3 53/86/14 
f 53/86/14 55/89/15 47/74/11 
f 49/77/12 47/74/11 55/89/15 
f 55/89/15 56/90/16 49/77/12 
f 51/80/13 49/77/12 56/90/16 
f 56/90/16 57/91/17 51/80/13 
f 42/83/3 51/80/13 57/91/17 
f 57/91/17 54/92/3 42/83/3 
s 64
f 58/93/7 59/94/7 44/70/7 
f 44/70/7 43/69/7 58/93/7 
s 2
f 60/95/1 61/96/1 46/72/1 
f 46/72/1 45/71/1 60/95/1 
f 62/97/1 60/95/1 45/71/1 
f 45/71/1 48/75/1 62/97/1 
f 63/98/1 62/97/1 48/75/1 
f 48/75/1 50/78/1 63/98/1 
f 64/99/1 63/98/1 50/78/1 
f 50/78/1 52/81/1 64/99/1 
f 43/84/1 46/72/1 61/96/1 
f 61/96/1 58/100/1 43/84/1 
s 4
f 53/86/14 44/85/3 59/101/3 
f 59/101/3 65/102/2 53/86/14 
s 16
f 52/88/5 54/87/5 66/103/5 
f 66/103/5 64/104/5 52/88/5 
s 4
f 55/89/15 53/86/14 65/102/2 
f 65/102/2 67/105/2 55/89/15 
f 56/90/16 55/89/15 67/105/2 
f 67/105/2 68/106/8 56/90/16 
f 57/91/17 56/90/16 68/106/8 
f 68/106/8 69/107/8 57/91/17 
f 54/92/3 57/91/17 69/107/8 
f 69/107/8 66/108/3 54/92/3 
s 64
f 1/109/7 7/110/7 59/94/7 
f 59/94/7 58/93/7 1/109/7 
s 2
f 70/111/1 2/2/1 61/96/1 
f 61/96/1 60/95/1 70/111/1 
f 71/112/1 70/111/1 60/95/1 
f 60/95/1 62/97/1 71/112/1 
f 72/113/1 71/112/1 62/97/1 
f 62/97/1 63/98/1 72/113/1 
f 9/114/1 72/113/1 63/98/1 
f 63/98/1 64/99/1 9/114/1 
f 58/100/1 61/96/1 2/2/1 
f 2/2/1 1/1/1 58/100/1 
s 4
f 65/102/2 59/101/3 7/7/3 
f 7/7/3 6/6/2 65/102/2 
s 16
f 64/104/5 66/103/5 10/14/5 
f 10/14/5 9/13/5 64/104/5 
s 4
f 67/105/2 65/102/2 6/6/2 
f 6/6/2 26/30/2 67/105/2 
f 68/106/8 67/105/2 26/30/2 
f 26/30/2 33/42/8 68/106/8 
f 69/107/8 68/106/8 33/42/8 
f 33/42/8 38/50/8 69/107/8 
f 66/108/3 69/107/8 38/50/8 
f 38/50/8 10/56/3 66/108/3 
s 64
f 4/115/7 8/116/7 7/110/7 
f 7/110/7 1/109/7 4/115/7 
s 2
f 27/117/1 3/3/1 2/2/1 
f 2/2/1 70/111/1 27/117/1 
f 34/118/1 27/117/1 70/111/1 
f 70/111/1 71/112/1 34/118/1 
f 39/119/1 34/118/1 71/112/1 
f 71/112/1 72/113/1 39/119/1 
f 12/120/1 39/119/1 72/113/1 
f 72/113/1 9/114/1 12/120/1 
# 140 faces

