# 3ds Max Wavefront OBJ Exporter v0.97b - (c)2007 guruware
# File Created: 23.05.2013 11:44:03

mtllib drainBase.mtl

#
# object Box001
#

v  -2.5000 0.0000 1.5000
v  -1.5000 0.0000 1.5000
v  -1.5000 0.0000 2.5000
v  -2.5000 0.0000 2.5000
v  -1.5000 5.0000 2.5000
v  -1.5000 5.0000 1.5000
v  -2.5000 5.0000 1.5000
v  -2.5000 5.0000 2.5000
v  2.5000 0.0000 1.5000
v  2.5000 5.0000 1.5000
v  2.5000 5.0000 2.5000
v  2.5000 0.0000 2.5000
v  1.5000 0.0000 -2.5000
v  1.5000 5.0000 -2.5000
v  2.5000 5.0000 -2.5000
v  2.5000 0.0000 -2.5000
v  -2.5000 0.0000 -1.5000
v  -2.5000 5.0000 -1.5000
v  -2.5000 5.0000 -2.5000
v  -2.5000 0.0000 -2.5000
v  -0.5000 0.0000 -2.5000
v  -0.5000 0.0000 -1.5000
v  -1.5000 0.0000 -1.5000
v  -1.5000 0.0000 -2.5000
v  -0.5000 5.0000 2.5000
v  -0.5000 5.0000 1.5000
v  -0.5000 0.0000 2.5000
v  -1.5000 5.0000 -2.5000
v  -0.5000 5.0000 -2.5000
v  0.5000 0.0000 -2.5000
v  0.5000 0.0000 -1.5000
v  0.5000 5.0000 2.5000
v  0.5000 5.0000 1.5000
v  0.5000 0.0000 2.5000
v  0.5000 5.0000 -2.5000
v  1.5000 0.0000 -1.5000
v  1.5000 5.0000 2.5000
v  1.5000 5.0000 1.5000
v  1.5000 0.0000 2.5000
v  2.5000 0.0000 -1.5000
v  -1.5000 5.0000 -1.5000
v  2.5000 5.0000 -1.5000
v  -2.5000 0.0000 -0.5000
v  -2.5000 5.0000 -0.5000
v  -0.5000 0.0000 -0.5000
v  -1.5000 0.0000 -0.5000
v  -0.5000 5.0000 -1.5000
v  0.5000 0.0000 -0.5000
v  0.5000 5.0000 -1.5000
v  1.5000 0.0000 -0.5000
v  1.5000 5.0000 -1.5000
v  2.5000 0.0000 -0.5000
v  -1.5000 5.0000 -0.5000
v  2.5000 5.0000 -0.5000
v  -0.5000 3.0000 -0.5000
v  0.5000 3.0000 -0.5000
v  1.5000 5.0000 -0.5000
v  -2.5000 0.0000 0.5000
v  -2.5000 5.0000 0.5000
v  -0.5000 0.0000 0.5000
v  -1.5000 0.0000 0.5000
v  0.5000 0.0000 0.5000
v  1.5000 0.0000 0.5000
v  2.5000 0.0000 0.5000
v  -1.5000 5.0000 0.5000
v  2.5000 5.0000 0.5000
v  -0.5000 3.0000 0.5000
v  0.5000 3.0000 0.5000
v  1.5000 5.0000 0.5000
v  -0.5000 0.0000 1.5000
v  0.5000 0.0000 1.5000
v  1.5000 0.0000 1.5000
# 72 vertices

vn 0.0000 -1.0000 -0.0000
vn 0.0000 1.0000 -0.0000
vn 0.1737 0.9694 -0.1737
vn 0.0000 0.0000 1.0000
vn 1.0000 0.0000 -0.0000
vn 0.0000 0.0000 -1.0000
vn -1.0000 0.0000 -0.0000
vn 0.0000 0.8507 -0.5257
vn -0.1492 0.9039 -0.4009
vn 0.1492 0.9039 0.4009
vn 0.0000 0.8507 0.5257
vn -0.1737 0.9694 0.1737
vn 0.4009 0.9039 0.1492
vn 0.4461 0.7759 0.4461
vn -0.4248 0.7994 0.4248
vn -0.5257 0.8507 0.0000
vn 0.5257 0.8507 -0.0000
vn 0.4248 0.7994 -0.4248
vn -0.4461 0.7759 -0.4461
vn -0.4009 0.9039 -0.1492
# 20 vertex normals

vt 1.0000 0.0611 0.0000
vt 0.9389 0.0611 0.0000
vt 0.9389 0.0000 0.0000
vt 1.0000 0.0000 0.0000
vt 0.0717 0.0000 0.0000
vt 0.0717 0.0717 0.0000
vt 0.0000 0.0717 0.0000
vt 0.0000 0.0000 0.0000
vt 0.0611 0.3738 0.0000
vt 0.0611 0.6792 0.0000
vt 0.0000 0.6792 0.0000
vt 0.0000 0.3738 0.0000
vt 0.4348 0.0000 0.0000
vt 0.4348 0.3054 0.0000
vt 0.3738 0.3054 0.0000
vt 0.3738 0.0000 0.0000
vt 0.0611 0.6946 0.0000
vt 0.0611 1.0000 0.0000
vt 0.0000 1.0000 0.0000
vt 0.0000 0.6946 0.0000
vt 0.4348 0.3208 0.0000
vt 0.4348 0.6262 0.0000
vt 0.3738 0.6262 0.0000
vt 0.3738 0.3208 0.0000
vt 0.8778 0.3054 0.0000
vt 0.8778 0.2443 0.0000
vt 0.9389 0.2443 0.0000
vt 0.9389 0.3054 0.0000
vt 0.1433 0.0000 0.0000
vt 0.1433 0.0717 0.0000
vt 0.1222 0.3738 0.0000
vt 0.1222 0.6792 0.0000
vt 0.3054 0.6946 0.0000
vt 0.3054 1.0000 0.0000
vt 0.2443 1.0000 0.0000
vt 0.2443 0.6946 0.0000
vt 0.1832 1.0000 0.0000
vt 0.1832 0.6946 0.0000
vt 0.8168 0.3054 0.0000
vt 0.8168 0.2443 0.0000
vt 0.2150 0.0000 0.0000
vt 0.2150 0.0717 0.0000
vt 0.1832 0.3738 0.0000
vt 0.1832 0.6792 0.0000
vt 0.1222 1.0000 0.0000
vt 0.1222 0.6946 0.0000
vt 0.7557 0.3054 0.0000
vt 0.7557 0.2443 0.0000
vt 0.2867 0.0000 0.0000
vt 0.2867 0.0717 0.0000
vt 0.2443 0.3738 0.0000
vt 0.2443 0.6792 0.0000
vt 0.6946 0.3054 0.0000
vt 0.6946 0.2443 0.0000
vt 0.3583 0.0000 0.0000
vt 0.3583 0.0717 0.0000
vt 0.3054 0.3738 0.0000
vt 0.3054 0.6792 0.0000
vt 1.0000 0.3054 0.0000
vt 1.0000 0.2443 0.0000
vt 0.0717 0.3583 0.0000
vt 0.0000 0.3583 0.0000
vt 0.0000 0.2867 0.0000
vt 0.0717 0.2867 0.0000
vt 0.6792 0.0000 0.0000
vt 0.6792 0.3054 0.0000
vt 0.6181 0.3054 0.0000
vt 0.6181 0.0000 0.0000
vt 0.4959 0.3208 0.0000
vt 0.4959 0.6262 0.0000
vt 0.8778 0.1832 0.0000
vt 0.9389 0.1832 0.0000
vt 0.1433 0.3583 0.0000
vt 0.1433 0.2867 0.0000
vt 0.8168 0.1832 0.0000
vt 0.2150 0.3583 0.0000
vt 0.2150 0.2867 0.0000
vt 0.7557 0.1832 0.0000
vt 0.2867 0.3583 0.0000
vt 0.2867 0.2867 0.0000
vt 0.6946 0.1832 0.0000
vt 0.3583 0.3583 0.0000
vt 0.3583 0.2867 0.0000
vt 1.0000 0.1832 0.0000
vt 0.0000 0.2150 0.0000
vt 0.0717 0.2150 0.0000
vt 0.5570 0.3054 0.0000
vt 0.5570 0.0000 0.0000
vt 0.1433 0.2150 0.0000
vt 0.2150 0.2150 0.0000
vt 0.2867 0.2150 0.0000
vt 0.3583 0.2150 0.0000
vt 0.5570 0.3208 0.0000
vt 0.5570 0.6262 0.0000
vt 0.8778 0.1222 0.0000
vt 0.9389 0.1222 0.0000
vt 0.8168 0.1222 0.0000
vt 0.7557 0.1222 0.0000
vt 0.6946 0.1222 0.0000
vt 1.0000 0.1222 0.0000
vt 0.0000 0.1433 0.0000
vt 0.0717 0.1433 0.0000
vt 0.4959 0.3054 0.0000
vt 0.4959 0.0000 0.0000
vt 0.1433 0.1433 0.0000
vt 0.2150 0.1433 0.0000
vt 0.2867 0.1433 0.0000
vt 0.3583 0.1433 0.0000
vt 0.6181 0.3208 0.0000
vt 0.6181 0.6262 0.0000
vt 0.8778 0.0611 0.0000
vt 0.8168 0.0611 0.0000
vt 0.7557 0.0611 0.0000
vt 0.6946 0.0611 0.0000
vt 0.6792 0.3208 0.0000
vt 0.6792 0.6262 0.0000
vt 0.8778 0.0000 0.0000
vt 0.8168 0.0000 0.0000
vt 0.7557 0.0000 0.0000
vt 0.6946 0.0000 0.0000
# 120 texture coords

g Box001
usemtl wire_184155229
s 2
f 1/1/1 2/2/1 3/3/1 
f 3/3/1 4/4/1 1/1/1 
s 4
f 5/5/2 6/6/3 7/7/2 
f 7/7/2 8/8/2 5/5/2 
s 8
f 3/9/4 5/10/4 8/11/4 
f 8/11/4 4/12/4 3/9/4 
s 16
f 9/13/5 10/14/5 11/15/5 
f 11/15/5 12/16/5 9/13/5 
s 32
f 13/17/6 14/18/6 15/19/6 
f 15/19/6 16/20/6 13/17/6 
s 64
f 17/21/7 18/22/7 19/23/7 
f 19/23/7 20/24/7 17/21/7 
s 2
f 21/25/1 22/26/1 23/27/1 
f 23/27/1 24/28/1 21/25/1 
s 4
f 25/29/2 26/30/8 6/6/3 
f 6/6/3 5/5/2 25/29/2 
s 8
f 27/31/4 25/32/4 5/10/4 
f 5/10/4 3/9/4 27/31/4 
s 32
f 20/33/6 19/34/6 28/35/6 
f 28/35/6 24/36/6 20/33/6 
f 24/36/6 28/35/6 29/37/6 
f 29/37/6 21/38/6 24/36/6 
s 2
f 30/39/1 31/40/1 22/26/1 
f 22/26/1 21/25/1 30/39/1 
s 4
f 32/41/2 33/42/9 26/30/8 
f 26/30/8 25/29/2 32/41/2 
s 8
f 34/43/4 32/44/4 25/32/4 
f 25/32/4 27/31/4 34/43/4 
s 32
f 21/38/6 29/37/6 35/45/6 
f 35/45/6 30/46/6 21/38/6 
s 2
f 13/47/1 36/48/1 31/40/1 
f 31/40/1 30/39/1 13/47/1 
s 4
f 37/49/2 38/50/2 33/42/9 
f 33/42/9 32/41/2 37/49/2 
s 8
f 39/51/4 37/52/4 32/44/4 
f 32/44/4 34/43/4 39/51/4 
s 32
f 30/46/6 35/45/6 14/18/6 
f 14/18/6 13/17/6 30/46/6 
s 2
f 16/53/1 40/54/1 36/48/1 
f 36/48/1 13/47/1 16/53/1 
s 4
f 11/55/2 10/56/2 38/50/2 
f 38/50/2 37/49/2 11/55/2 
s 8
f 12/57/4 11/58/4 37/52/4 
f 37/52/4 39/51/4 12/57/4 
s 2
f 20/59/1 24/28/1 23/27/1 
f 23/27/1 17/60/1 20/59/1 
s 4
f 28/61/2 19/62/2 18/63/2 
f 18/63/2 41/64/2 28/61/2 
s 16
f 16/65/5 15/66/5 42/67/5 
f 42/67/5 40/68/5 16/65/5 
s 64
f 43/69/7 44/70/7 18/22/7 
f 18/22/7 17/21/7 43/69/7 
s 2
f 45/71/1 46/72/1 23/27/1 
f 23/27/1 22/26/1 45/71/1 
s 4
f 29/73/2 28/61/2 41/64/2 
f 41/64/2 47/74/10 29/73/2 
s 2
f 48/75/1 45/71/1 22/26/1 
f 22/26/1 31/40/1 48/75/1 
s 4
f 35/76/2 29/73/2 47/74/10 
f 47/74/10 49/77/11 35/76/2 
s 2
f 50/78/1 48/75/1 31/40/1 
f 31/40/1 36/48/1 50/78/1 
s 4
f 14/79/2 35/76/2 49/77/11 
f 49/77/11 51/80/12 14/79/2 
s 2
f 52/81/1 50/78/1 36/48/1 
f 36/48/1 40/54/1 52/81/1 
s 4
f 15/82/2 14/79/2 51/80/12 
f 51/80/12 42/83/2 15/82/2 
s 2
f 17/60/1 23/27/1 46/72/1 
f 46/72/1 43/84/1 17/60/1 
s 4
f 41/64/2 18/63/2 44/85/2 
f 44/85/2 53/86/13 41/64/2 
s 16
f 40/68/5 42/67/5 54/87/5 
f 54/87/5 52/88/5 40/68/5 
s 4
f 47/74/10 41/64/2 53/86/13 
f 53/86/13 55/89/14 47/74/10 
f 49/77/11 47/74/10 55/89/14 
f 55/89/14 56/90/15 49/77/11 
f 51/80/12 49/77/11 56/90/15 
f 56/90/15 57/91/16 51/80/12 
f 42/83/2 51/80/12 57/91/16 
f 57/91/16 54/92/2 42/83/2 
s 64
f 58/93/7 59/94/7 44/70/7 
f 44/70/7 43/69/7 58/93/7 
s 2
f 60/95/1 61/96/1 46/72/1 
f 46/72/1 45/71/1 60/95/1 
f 62/97/1 60/95/1 45/71/1 
f 45/71/1 48/75/1 62/97/1 
f 63/98/1 62/97/1 48/75/1 
f 48/75/1 50/78/1 63/98/1 
f 64/99/1 63/98/1 50/78/1 
f 50/78/1 52/81/1 64/99/1 
f 43/84/1 46/72/1 61/96/1 
f 61/96/1 58/100/1 43/84/1 
s 4
f 53/86/13 44/85/2 59/101/2 
f 59/101/2 65/102/17 53/86/13 
s 16
f 52/88/5 54/87/5 66/103/5 
f 66/103/5 64/104/5 52/88/5 
s 4
f 55/89/14 53/86/13 65/102/17 
f 65/102/17 67/105/18 55/89/14 
f 56/90/15 55/89/14 67/105/18 
f 67/105/18 68/106/19 56/90/15 
f 57/91/16 56/90/15 68/106/19 
f 68/106/19 69/107/20 57/91/16 
f 54/92/2 57/91/16 69/107/20 
f 69/107/20 66/108/2 54/92/2 
s 64
f 1/109/7 7/110/7 59/94/7 
f 59/94/7 58/93/7 1/109/7 
s 2
f 70/111/1 2/2/1 61/96/1 
f 61/96/1 60/95/1 70/111/1 
f 71/112/1 70/111/1 60/95/1 
f 60/95/1 62/97/1 71/112/1 
f 72/113/1 71/112/1 62/97/1 
f 62/97/1 63/98/1 72/113/1 
f 9/114/1 72/113/1 63/98/1 
f 63/98/1 64/99/1 9/114/1 
f 58/100/1 61/96/1 2/2/1 
f 2/2/1 1/1/1 58/100/1 
s 4
f 65/102/17 59/101/2 7/7/2 
f 7/7/2 6/6/3 65/102/17 
s 16
f 64/104/5 66/103/5 10/14/5 
f 10/14/5 9/13/5 64/104/5 
s 4
f 67/105/18 65/102/17 6/6/3 
f 6/6/3 26/30/8 67/105/18 
f 68/106/19 67/105/18 26/30/8 
f 26/30/8 33/42/9 68/106/19 
f 69/107/20 68/106/19 33/42/9 
f 33/42/9 38/50/2 69/107/20 
f 66/108/2 69/107/20 38/50/2 
f 38/50/2 10/56/2 66/108/2 
s 64
f 4/115/7 8/116/7 7/110/7 
f 7/110/7 1/109/7 4/115/7 
s 2
f 27/117/1 3/3/1 2/2/1 
f 2/2/1 70/111/1 27/117/1 
f 34/118/1 27/117/1 70/111/1 
f 70/111/1 71/112/1 34/118/1 
f 39/119/1 34/118/1 71/112/1 
f 71/112/1 72/113/1 39/119/1 
f 12/120/1 39/119/1 72/113/1 
f 72/113/1 9/114/1 12/120/1 
# 140 faces

